# Blender 3.6.5
# www.blender.org
mtllib bishop.mtl
o PrimaryWhiteBishop.001
v 0.144620 7.732566 -0.144620
v 0.144620 7.496403 -0.144620
v 0.204524 7.732566 -0.000000
v 0.204524 7.496403 -0.000000
v 0.144620 7.732566 0.144620
v 0.144620 7.496403 0.144620
v 0.000001 7.732566 0.204523
v 0.000001 7.496403 0.204523
v 0.000001 7.850647 0.000000
v -0.144619 7.732566 0.144620
v -0.144619 7.496403 0.144620
v -0.204522 7.732566 -0.000000
v -0.204522 7.496403 -0.000000
v -0.144619 7.732566 -0.144620
v -0.144619 7.496403 -0.144620
v 0.000001 7.732566 -0.204523
v 0.000001 7.496403 -0.204523
v 0.000001 7.378322 0.000000
v -0.117149 5.016781 0.693854
v 0.000001 4.691500 -0.713056
v 0.460017 6.923806 -0.460016
v 0.713273 5.864697 -0.713271
v 0.504208 4.691500 -0.504206
v 0.650563 6.923806 0.000001
v 1.008719 5.864697 0.000001
v 0.713057 4.691500 0.000001
v 0.460017 6.923806 0.460017
v 0.713273 5.864697 0.713272
v 0.504208 4.691500 0.504208
v 0.937523 4.298270 0.000000
v 0.000001 6.923806 0.650562
v 0.000001 4.691500 0.713057
v 1.136728 4.123886 0.000000
v 0.000001 7.378322 0.000001
v -0.713271 5.864697 0.713272
v -0.504206 4.691500 0.504208
v 0.000001 4.445661 0.941341
v -0.650561 6.923806 0.000001
v -1.008718 5.864697 0.000001
v -0.713056 4.691500 0.000001
v 0.000001 4.298270 0.937522
v -0.713271 5.864697 -0.713271
v -0.504206 4.691500 -0.504206
v 0.000001 4.123886 1.136728
v 0.000001 0.000000 -1.999999
v 0.000001 1.664435 -1.023046
v 1.414214 0.000000 -1.414213
v 0.723404 1.664435 -0.723403
v 2.000001 0.000000 0.000000
v 1.023048 1.664435 0.000000
v 1.414214 0.000000 1.414214
v 0.723404 1.664435 0.723404
v 0.000000 0.000000 2.000001
v 0.000001 1.664435 1.023047
v -1.414214 0.000000 1.414213
v -0.723403 1.664435 0.723403
v -1.999999 0.000000 -0.000001
v -1.023046 1.664435 -0.000001
v -1.414211 0.000000 -1.414215
v -0.723401 1.664435 -0.723404
v 0.000001 1.437039 -1.227852
v 0.000001 1.567677 -1.218314
v 0.861479 1.567677 -0.861478
v 0.868223 1.437039 -0.868222
v 1.218315 1.567677 0.000000
v 1.227853 1.437039 0.000000
v 0.861479 1.567677 0.861478
v 0.868223 1.437039 0.868223
v 0.000001 1.567677 1.218314
v 0.000001 1.437039 1.227852
v -0.861478 1.567677 0.861478
v -0.868222 1.437039 0.868222
v -1.218313 1.567677 -0.000001
v -1.227851 1.437039 -0.000001
v -0.861476 1.567677 -0.861479
v -0.868220 1.437039 -0.868223
v 0.000001 0.214252 -1.992781
v 1.409110 0.214252 -1.409109
v 1.992783 0.214252 0.000000
v 1.409110 0.214252 1.409110
v 0.000000 0.214252 1.992782
v -1.409109 0.214252 1.409109
v -1.992781 0.214252 -0.000001
v -1.409107 0.214252 -1.409111
v 0.000001 0.864590 -1.848506
v 1.307092 0.864590 -1.307091
v 1.848508 0.864590 0.000000
v 1.307092 0.864590 1.307092
v 0.000000 0.864590 1.848507
v -1.307092 0.864590 1.307091
v -1.848506 0.864590 -0.000001
v -1.307089 0.864590 -1.307093
v 0.000001 0.571339 -1.614609
v 1.141702 0.571339 -1.141700
v 1.614610 0.571339 0.000000
v 1.141702 0.571339 1.141701
v 0.000000 0.571339 1.614609
v -1.141701 0.571339 1.141701
v -1.614608 0.571339 -0.000001
v -1.141698 0.571339 -1.141702
v 0.665629 4.445661 -0.665627
v 0.662929 4.298270 -0.662927
v 0.803788 4.123886 -0.803787
v 0.000001 2.826297 -0.639792
v 0.000001 3.921988 -0.702688
v 0.496877 3.921988 -0.496875
v 0.452402 2.826297 -0.452401
v -0.639791 2.826297 -0.000000
v -0.702687 3.921988 -0.000001
v -0.496874 3.921988 -0.496876
v -0.452400 2.826297 -0.452402
v 0.452402 2.826297 0.452401
v 0.496877 3.921988 0.496876
v 0.000001 3.921988 0.702688
v 0.000001 2.826297 0.639792
v 0.639793 2.826297 0.000000
v 0.702689 3.921988 0.000000
v -0.496875 3.921988 0.496876
v -0.452400 2.826297 0.452401
v 0.941341 4.445661 0.000001
v -0.803786 4.123886 -0.803788
v -0.662927 4.298270 -0.662928
v -0.665627 4.445661 -0.665627
v -0.803787 4.123886 0.803788
v -0.662927 4.298270 0.662928
v -0.665627 4.445661 0.665628
v -1.136726 4.123886 -0.000000
v -0.937521 4.298270 -0.000000
v -0.941339 4.445661 0.000000
v 0.000001 4.445661 -0.941339
v 0.000001 4.298269 -0.937521
v 0.000001 4.123886 -1.136727
v 0.803788 4.123886 0.803788
v 0.662929 4.298270 0.662928
v 0.665629 4.445661 0.665628
v 0.513630 4.917115 -0.513629
v 0.726382 4.917115 0.000001
v 0.513630 4.917115 0.513630
v 0.000001 4.917115 0.726382
v -0.513628 4.917115 0.513630
v -0.726380 4.917115 0.000001
v -0.513628 4.917115 -0.513629
v 0.000001 4.917115 -0.726381
v 0.000001 6.952406 -0.609625
v 0.006057 6.923806 -0.648052
v -0.076858 7.302382 -0.076858
v -0.082977 7.320349 0.000001
v -0.082954 7.296359 0.082956
v -0.050046 6.923806 0.629832
v 0.000001 6.554368 0.775494
v 0.096890 5.864697 0.968586
v -0.123563 5.017628 0.705148
v -0.108634 5.019947 0.712023
v -0.114233 5.436716 -0.833881
v 0.000001 5.569472 -0.920754
v 0.196262 5.749230 -0.893019
v 0.193108 5.295126 0.759025
v 0.000001 5.104475 0.782207
v 0.180419 5.864697 -0.933986
v -0.469578 7.050249 0.000001
v -0.470027 6.923806 -0.435847
v -0.470444 6.923806 0.434841
v -0.475353 5.864697 -0.811820
v -0.470232 6.881080 -0.470232
v -0.470693 6.879151 0.470695
v -0.476132 5.864697 0.811498
v -0.476577 5.635640 -0.743064
v -0.479197 5.258340 0.629561
vn 0.2028 -0.8480 -0.4896
vn 0.3827 -0.0000 -0.9239
vn 0.2028 0.8480 -0.4896
vn 0.4896 -0.8480 -0.2028
vn 0.9239 -0.0000 -0.3827
vn 0.4896 0.8480 -0.2028
vn 0.4896 -0.8480 0.2028
vn 0.9239 -0.0000 0.3827
vn 0.4896 0.8480 0.2028
vn 0.2028 -0.8480 0.4896
vn 0.3827 -0.0000 0.9239
vn 0.2028 0.8480 0.4896
vn -0.2028 -0.8480 0.4896
vn -0.3827 -0.0000 0.9239
vn -0.2028 0.8480 0.4896
vn -0.4896 -0.8480 0.2028
vn -0.9239 -0.0000 0.3827
vn -0.4896 0.8480 0.2028
vn -0.4896 -0.8480 -0.2028
vn -0.9239 -0.0000 -0.3827
vn -0.4896 0.8480 -0.2028
vn -0.2028 -0.8480 -0.4896
vn -0.3827 -0.0000 -0.9239
vn -0.2028 0.8480 -0.4896
vn 0.3690 -0.2654 -0.8907
vn -0.4155 -0.8932 0.1721
vn -0.1721 -0.8932 -0.4155
vn 0.8818 0.2982 -0.3653
vn 0.8907 -0.2654 -0.3690
vn 0.5573 0.7976 -0.2308
vn 0.9236 -0.0239 -0.3826
vn 0.8818 0.2982 0.3653
vn 0.8907 -0.2654 0.3690
vn 0.5573 0.7976 0.2308
vn 0.6354 0.7259 -0.2632
vn 0.3653 0.2982 0.8818
vn 0.3690 -0.2654 0.8907
vn 0.2308 0.7976 0.5573
vn 0.2904 0.6511 0.7012
vn -0.3690 -0.2654 0.8907
vn -0.2308 0.7976 0.5573
vn -0.9236 -0.0239 -0.3826
vn -0.8818 0.2982 0.3653
vn -0.8907 -0.2654 0.3690
vn 0.1721 -0.8932 -0.4155
vn -0.8818 0.2982 -0.3653
vn 0.2632 0.7259 0.6354
vn -0.8907 -0.2654 -0.3690
vn -0.5573 0.7976 -0.2308
vn 0.4155 -0.8932 0.1721
vn -0.3653 0.2982 -0.8818
vn -0.3690 -0.2654 -0.8907
vn -0.3081 -0.5932 0.7438
vn 0.9218 0.0673 -0.3818
vn -0.3081 -0.5932 -0.7438
vn -0.2704 0.7077 0.6527
vn -0.6604 0.6994 0.2735
vn 0.1809 0.8813 -0.4367
vn 0.3818 0.0673 -0.9218
vn 0.6527 0.7077 -0.2704
vn 0.2704 0.7077 0.6527
vn 0.2735 0.6994 -0.6604
vn 0.4367 0.8813 -0.1809
vn 0.7438 -0.5932 -0.3081
vn 0.7438 -0.5932 0.3081
vn 0.3081 -0.5932 0.7438
vn 0.6604 0.6994 0.2735
vn 0.4367 0.8812 0.1809
vn 0.9218 0.0673 0.3818
vn 0.3081 -0.5932 -0.7438
vn -0.7438 -0.5932 -0.3081
vn 0.3818 0.0673 0.9218
vn 0.1809 0.8812 0.4367
vn -0.0000 -1.0000 -0.0000
vn -0.1721 -0.8932 0.4155
vn -0.7438 -0.5932 0.3081
vn -0.6527 0.7077 -0.2704
vn -0.3818 0.0673 0.9218
vn 0.3825 0.0311 0.9234
vn -0.1809 0.8813 0.4367
vn -0.3825 0.0311 0.9234
vn 0.9234 0.0311 -0.3825
vn 0.9234 0.0311 0.3825
vn 0.2704 0.7077 -0.6527
vn -0.9218 0.0673 0.3818
vn -0.4367 0.8813 0.1809
vn -0.3825 0.0311 -0.9234
vn -0.9234 0.0311 0.3825
vn 0.3825 0.0311 -0.9234
vn -0.9234 0.0311 -0.3825
vn 0.6527 0.7077 0.2704
vn -0.9218 0.0673 -0.3818
vn -0.4367 0.8813 -0.1809
vn -0.2735 0.6994 -0.6604
vn 0.6604 0.6994 -0.2735
vn -0.2704 0.7077 -0.6527
vn -0.3818 0.0673 -0.9218
vn -0.2735 0.6994 0.6604
vn -0.1809 0.8813 -0.4367
vn -0.6604 0.6994 -0.2735
vn -0.6527 0.7077 0.2704
vn 0.2735 0.6994 0.6604
vn 0.4155 -0.8932 -0.1721
vn 0.7012 0.6511 -0.2904
vn 0.3826 -0.0239 0.9236
vn -0.6354 0.7259 -0.2632
vn 0.1721 -0.8932 0.4155
vn -0.7012 0.6511 -0.2904
vn -0.4155 -0.8932 -0.1721
vn 0.9226 -0.0530 -0.3821
vn 0.3661 0.2915 0.8838
vn -0.9226 -0.0530 0.3821
vn -0.3821 -0.0530 -0.9226
vn -0.8838 0.2915 -0.3661
vn -0.8838 0.2915 0.3661
vn -0.3821 -0.0530 0.9226
vn 0.8838 0.2915 -0.3661
vn -0.3661 0.2915 -0.8838
vn 0.9226 -0.0530 0.3821
vn 0.8838 0.2915 0.3661
vn 0.3661 0.2915 -0.8838
vn 0.3821 -0.0530 0.9226
vn -0.3661 0.2915 0.8838
vn -0.9226 -0.0530 -0.3821
vn 0.3821 -0.0530 -0.9226
vn -0.2904 0.6511 0.7012
vn -0.3826 -0.0239 0.9236
vn -0.2632 0.7259 0.6354
vn 0.7012 0.6511 0.2904
vn 0.9236 -0.0239 0.3826
vn 0.6354 0.7259 0.2632
vn 0.2904 0.6511 -0.7012
vn 0.3826 -0.0239 -0.9236
vn 0.2632 0.7259 -0.6354
vn -0.2904 0.6511 -0.7012
vn -0.3826 -0.0239 -0.9236
vn -0.2632 0.7259 -0.6354
vn -0.7012 0.6511 0.2904
vn -0.9236 -0.0239 0.3826
vn -0.6354 0.7259 0.2632
vn -0.3821 -0.0545 -0.9225
vn -0.9225 -0.0545 -0.3821
vn -0.9225 -0.0545 0.3821
vn -0.3821 -0.0545 0.9225
vn 0.3821 -0.0545 0.9225
vn 0.9225 -0.0545 0.3821
vn 0.9225 -0.0545 -0.3821
vn 0.3821 -0.0545 -0.9225
vn 1.0000 -0.0052 0.0005
vn -0.6774 0.7097 0.1938
vn 0.5119 0.8281 0.2286
vn -0.2308 0.7976 -0.5573
vn -0.3653 0.2982 0.8818
vn 0.2308 0.7976 -0.5573
vn 0.3653 0.2982 -0.8818
vn -0.9876 -0.1509 -0.0434
vn -0.5573 0.7976 0.2308
vn -0.0945 0.9873 -0.1277
s 0
f 18//1 17//1 2//1
f 17//2 16//2 1//2 2//2
f 16//3 9//3 1//3
f 18//4 2//4 4//4
f 2//5 1//5 3//5 4//5
f 1//6 9//6 3//6
f 18//7 4//7 6//7
f 4//8 3//8 5//8 6//8
f 3//9 9//9 5//9
f 18//10 6//10 8//10
f 6//11 5//11 7//11 8//11
f 5//12 9//12 7//12
f 18//13 8//13 11//13
f 8//14 7//14 10//14 11//14
f 7//15 9//15 10//15
f 18//16 11//16 13//16
f 11//17 10//17 12//17 13//17
f 10//18 9//18 12//18
f 18//19 13//19 15//19
f 13//20 12//20 14//20 15//20
f 12//21 9//21 14//21
f 18//22 15//22 17//22
f 15//23 14//23 16//23 17//23
f 14//24 9//24 16//24
f 143//25 155//25 156//25 159//25 22//25 136//25
f 127//26 109//26 118//26 124//26
f 132//27 105//27 110//27 121//27
f 22//28 21//28 24//28 25//28
f 136//29 22//29 25//29 137//29
f 21//30 34//30 24//30
f 120//31 30//31 102//31 101//31
f 25//32 24//32 27//32 28//32
f 137//33 25//33 28//33 138//33
f 24//34 34//34 27//34
f 30//35 33//35 103//35 102//35
f 28//36 27//36 31//36 150//36 151//36
f 138//37 28//37 151//37 157//37 158//37 139//37
f 27//38 34//38 31//38
f 32//39 37//39 135//39 29//39
f 139//40 158//40 153//40 152//40 168//40 166//40 35//40 140//40
f 31//41 34//41 148//41 149//41
f 123//42 122//42 128//42 129//42
f 35//43 165//43 162//43 38//43 39//43
f 140//44 35//44 39//44 141//44
f 103//45 106//45 105//45 132//45
f 39//46 38//46 161//46 164//46 42//46
f 41//47 44//47 133//47 134//47
f 141//48 39//48 42//48 142//48
f 38//49 160//49 161//49
f 133//50 113//50 117//50 33//50
f 42//51 164//51 163//51
f 142//52 42//52 163//52 167//52 154//52 155//52 143//52
f 97//53 89//53 90//53 98//53
f 64//54 63//54 65//54 66//54
f 100//55 92//55 85//55 93//55
f 72//56 90//56 89//56 70//56
f 99//57 83//57 82//57 98//57
f 62//58 46//58 48//58 63//58
f 61//59 62//59 63//59 64//59
f 66//60 87//60 86//60 64//60
f 70//61 89//61 88//61 68//61
f 94//62 78//62 77//62 93//62
f 63//63 48//63 50//63 65//63
f 94//64 86//64 87//64 95//64
f 95//65 87//65 88//65 96//65
f 96//66 88//66 89//66 97//66
f 96//67 80//67 79//67 95//67
f 65//68 50//68 52//68 67//68
f 66//69 65//69 67//69 68//69
f 93//70 85//70 86//70 94//70
f 99//71 91//71 92//71 100//71
f 68//72 67//72 69//72 70//72
f 67//73 52//73 54//73 69//73
f 53//74 55//74 57//74 59//74 45//74 47//74 49//74 51//74
f 124//75 118//75 114//75 44//75
f 98//76 90//76 91//76 99//76
f 76//77 92//77 91//77 74//77
f 70//78 69//78 71//78 72//78
f 51//79 80//79 81//79 53//79
f 69//80 54//80 56//80 71//80
f 53//81 81//81 82//81 55//81
f 47//82 78//82 79//82 49//82
f 49//83 79//83 80//83 51//83
f 64//84 86//84 85//84 61//84
f 72//85 71//85 73//85 74//85
f 71//86 56//86 58//86 73//86
f 59//87 84//87 77//87 45//87
f 55//88 82//88 83//88 57//88
f 45//89 77//89 78//89 47//89
f 57//90 83//90 84//90 59//90
f 68//91 88//91 87//91 66//91
f 74//92 73//92 75//92 76//92
f 73//93 58//93 60//93 75//93
f 93//94 77//94 84//94 100//94
f 95//95 79//95 78//95 94//95
f 61//96 85//96 92//96 76//96
f 76//97 75//97 62//97 61//97
f 98//98 82//98 81//98 97//98
f 75//99 60//99 46//99 62//99
f 100//100 84//100 83//100 99//100
f 74//101 91//101 90//101 72//101
f 97//102 81//102 80//102 96//102
f 33//103 117//103 106//103 103//103
f 26//104 120//104 101//104 23//104
f 37//105 41//105 134//105 135//105
f 122//106 121//106 127//106 128//106
f 44//107 114//107 113//107 133//107
f 43//108 123//108 129//108 40//108
f 121//109 110//109 109//109 127//109
f 116//110 107//110 106//110 117//110
f 52//111 112//111 115//111 54//111
f 108//112 119//112 118//112 109//112
f 104//113 111//113 110//113 105//113
f 58//114 108//114 111//114 60//114
f 56//115 119//115 108//115 58//115
f 119//116 115//116 114//116 118//116
f 48//117 107//117 116//117 50//117
f 60//118 111//118 104//118 46//118
f 112//119 116//119 117//119 113//119
f 50//120 116//120 112//120 52//120
f 46//121 104//121 107//121 48//121
f 115//122 112//122 113//122 114//122
f 54//123 115//123 119//123 56//123
f 111//124 108//124 109//124 110//124
f 107//125 104//125 105//125 106//125
f 36//126 126//126 37//126 32//126
f 126//127 125//127 41//127 37//127
f 125//128 124//128 44//128 41//128
f 29//129 135//129 120//129 26//129
f 135//130 134//130 30//130 120//130
f 134//131 133//131 33//131 30//131
f 23//132 101//132 130//132 20//132
f 101//133 102//133 131//133 130//133
f 102//134 103//134 132//134 131//134
f 20//135 130//135 123//135 43//135
f 130//136 131//136 122//136 123//136
f 131//137 132//137 121//137 122//137
f 40//138 129//138 126//138 36//138
f 129//139 128//139 125//139 126//139
f 128//140 127//140 124//140 125//140
f 43//141 142//141 143//141 20//141
f 40//142 141//142 142//142 43//142
f 36//143 140//143 141//143 40//143
f 32//144 139//144 140//144 36//144
f 29//145 138//145 139//145 32//145
f 26//146 137//146 138//146 29//146
f 23//147 136//147 137//147 26//147
f 20//148 143//148 136//148 23//148
f 168//149 167//149 163//149 164//149 161//149 160//149 162//149 165//149 166//149
f 154//150 19//150 153//150 158//150 157//150 156//150 155//150
f 167//151 168//151 152//151 19//151 154//151
f 146//49 147//49 34//49
f 144//152 146//152 34//152
f 166//153 165//153 35//153
f 149//153 150//153 31//153
f 145//154 144//154 34//154 21//154
f 159//155 145//155 21//155 22//155
f 156//156 157//156 151//156 150//156 149//156 148//156 147//156 146//156 144//156 145//156 159//156
f 162//157 160//157 38//157
f 147//157 148//157 34//157
f 153//158 19//158 152//158
