# Blender 3.6.5
# www.blender.org
mtllib king.mtl
o WhiteKing
v -0.567233 6.739028 0.567234
v -1.590991 0.000000 1.590990
v -0.813829 2.195342 0.813828
v -0.969163 2.086489 0.969163
v -0.976751 1.939522 0.976750
v -1.585249 0.241033 1.585248
v -1.470479 1.119415 1.470478
v -1.284414 0.642755 1.284413
v -0.666975 6.095386 0.666975
v -0.556260 4.109009 0.556260
v -1.047546 6.297381 1.047546
v -0.738780 6.476804 0.738780
v -0.740706 6.659379 0.740707
v -0.568565 7.043754 0.568565
v -0.601154 7.098049 0.601155
v -0.573865 7.148155 0.573865
v -0.981711 8.320771 0.981712
v -0.190815 8.655428 0.190816
v -0.242009 8.797549 0.242010
v -0.100000 9.009564 0.025000
v -0.103243 8.957756 0.125698
v -0.101886 9.009564 0.101886
v -0.234428 9.020712 0.058607
v -0.100000 9.185690 0.025000
v -0.100000 9.479975 0.025000
v -0.240020 9.662787 0.025000
v -0.305107 9.120768 0.030515
v -0.305107 9.544897 0.030515
v 0.000000 6.739028 0.802189
v 0.567233 6.739028 0.567234
v 0.000000 6.659379 1.047518
v 0.000000 6.476804 1.044793
v 0.000000 6.297381 1.481454
v 0.000000 0.000000 2.250001
v 0.000000 2.195342 1.150928
v 1.590991 0.000000 1.590990
v 0.813829 2.195342 0.813828
v 0.000000 2.086489 1.370604
v 0.000000 1.939522 1.381333
v 0.969163 2.086489 0.969163
v 0.976751 1.939522 0.976750
v 0.000000 0.241033 2.241880
v 1.585249 0.241033 1.585248
v 0.000000 1.119415 2.079571
v 1.470479 1.119415 1.470478
v 0.000000 0.642755 1.816435
v 1.284414 0.642755 1.284413
v 0.000000 6.095386 0.943245
v 0.000000 4.109009 0.786670
v 0.666975 6.095386 0.666975
v 0.556260 4.109009 0.556260
v 1.047546 6.297381 1.047546
v 0.738780 6.476804 0.738780
v 0.740706 6.659379 0.740707
v 0.568565 7.043754 0.568565
v 0.601154 7.098049 0.601155
v 0.573865 7.148155 0.573865
v 0.000000 7.043754 0.804073
v 0.000000 7.098049 0.850161
v 0.000000 7.148155 0.811568
v 0.981711 8.320771 0.981712
v 0.000000 8.320771 1.388350
v 0.190815 8.655428 0.190816
v 0.000000 8.655428 0.269854
v 0.242009 8.797549 0.242010
v 0.000000 8.797549 0.342253
v 0.100000 9.009564 0.025000
v 0.000000 9.009564 0.144089
v 0.103243 8.957756 0.125698
v 0.000000 8.957756 0.168462
v 0.101886 9.009564 0.101886
v 0.000000 9.009564 0.025000
v 0.000000 9.020712 0.058607
v 0.234428 9.020712 0.058607
v 0.000000 9.185690 0.025000
v 0.100000 9.185690 0.025000
v 0.000000 9.479975 0.025000
v 0.100000 9.479975 0.025000
v 0.000000 9.662787 0.025000
v 0.240020 9.662787 0.025000
v 0.305107 9.120768 0.030515
v 0.305107 9.544897 0.030515
v -0.567233 6.739028 -0.567234
v -0.802189 6.739028 0.000000
v -1.590991 0.000000 -1.590990
v -0.813829 2.195342 -0.813828
v -2.250000 0.000000 0.000000
v -1.150928 2.195342 0.000000
v -0.969163 2.086489 -0.969163
v -0.976751 1.939522 -0.976750
v -1.370603 2.086489 0.000000
v -1.381333 1.939522 0.000000
v -1.585249 0.241033 -1.585248
v -2.241879 0.241033 0.000000
v -1.470479 1.119415 -1.470478
v -2.079570 1.119415 0.000000
v -1.284414 0.642755 -1.284413
v -1.816435 0.642755 0.000000
v -0.786670 4.109009 0.000000
v -0.943245 6.095386 0.000000
v -0.666975 6.095386 -0.666975
v -0.556260 4.109009 -0.556260
v -1.047546 6.297381 -1.047546
v -0.738780 6.476804 -0.738780
v -0.740706 6.659379 -0.740707
v -1.481454 6.297381 0.000000
v -1.044793 6.476804 0.000000
v -1.047517 6.659379 0.000000
v -0.804072 7.043754 0.000000
v -0.850160 7.098049 0.000000
v -0.811567 7.148155 0.000000
v -0.568565 7.043754 -0.568565
v -0.601154 7.098049 -0.601155
v -0.573865 7.148155 -0.573865
v -0.981711 8.320771 -0.981712
v -1.388349 8.320771 0.000000
v -0.269853 8.655428 0.000000
v -0.190815 8.655428 -0.190816
v -0.342252 8.797549 0.000000
v -0.242009 8.797549 -0.242010
v -0.100000 9.009564 -0.025000
v -0.144088 9.009564 0.000000
v -0.146007 8.957756 0.000000
v -0.103243 8.957756 -0.125698
v -0.101886 9.009564 -0.101886
v -0.100000 9.009564 0.000000
v -0.234428 9.020712 0.000000
v -0.234428 9.020712 -0.058607
v -0.100000 9.185690 0.000000
v -0.100000 9.185690 -0.025000
v -0.100000 9.479975 0.000000
v -0.100000 9.479975 -0.025000
v -0.240020 9.662787 0.000000
v -0.240020 9.662787 -0.025000
v -0.305107 9.120768 -0.030515
v -0.305107 9.120768 0.000000
v -0.305107 9.544897 -0.030515
v -0.305107 9.544897 0.000000
v 0.000000 6.739028 -0.802189
v 0.567233 6.739028 -0.567234
v 0.000000 6.659379 -1.047518
v 0.802189 6.739028 0.000000
v 0.000000 6.476804 -1.044793
v 0.000000 6.297381 -1.481454
v 0.000000 0.000000 -2.250001
v 0.000000 2.195342 -1.150928
v 1.590991 0.000000 -1.590990
v 0.813829 2.195342 -0.813828
v 2.250000 0.000000 0.000000
v 1.150928 2.195342 0.000000
v 0.000000 2.086489 -1.370604
v 0.000000 1.939522 -1.381333
v 0.969163 2.086489 -0.969163
v 0.976751 1.939522 -0.976750
v 1.370603 2.086489 0.000000
v 1.381333 1.939522 0.000000
v 0.000000 0.241033 -2.241880
v 1.585249 0.241033 -1.585248
v 2.241879 0.241033 0.000000
v 0.000000 1.119415 -2.079571
v 1.470479 1.119415 -1.470478
v 2.079570 1.119415 0.000000
v 0.000000 0.642755 -1.816435
v 1.284414 0.642755 -1.284413
v 1.816435 0.642755 0.000000
v 0.786670 4.109009 0.000000
v 0.943245 6.095386 0.000000
v 0.000000 6.095386 -0.943245
v 0.000000 4.109009 -0.786670
v 0.666975 6.095386 -0.666975
v 0.556260 4.109009 -0.556260
v 1.047546 6.297381 -1.047546
v 0.738780 6.476804 -0.738780
v 0.740706 6.659379 -0.740707
v 1.481454 6.297381 0.000000
v 1.044793 6.476804 0.000000
v 1.047517 6.659379 0.000000
v 0.804072 7.043754 0.000000
v 0.850160 7.098049 0.000000
v 0.811567 7.148155 0.000000
v 0.568565 7.043754 -0.568565
v 0.601154 7.098049 -0.601155
v 0.573865 7.148155 -0.573865
v 0.000000 7.043754 -0.804073
v 0.000000 7.098049 -0.850161
v 0.000000 7.148155 -0.811568
v 0.981711 8.320771 -0.981712
v 1.388349 8.320771 0.000000
v 0.000000 8.320771 -1.388350
v 0.269853 8.655428 0.000000
v 0.190815 8.655428 -0.190816
v 0.000000 8.655428 -0.269854
v 0.342252 8.797549 0.000000
v 0.242009 8.797549 -0.242010
v 0.000000 8.797549 -0.342253
v 0.100000 9.009564 -0.025000
v 0.000000 9.009564 -0.144089
v 0.144088 9.009564 0.000000
v 0.146007 8.957756 0.000000
v 0.000000 0.000000 0.000000
v 0.103243 8.957756 -0.125698
v 0.000000 8.957756 -0.168462
v 0.000000 9.009564 0.000000
v 0.101886 9.009564 -0.101886
v 0.000000 9.009564 0.000000
v 0.100000 9.009564 0.000000
v 0.000000 9.009564 -0.025000
v 0.000000 9.020712 -0.058607
v 0.000000 9.020712 0.000000
v 0.234428 9.020712 0.000000
v 0.234428 9.020712 -0.058607
v 0.000000 9.185690 -0.025000
v 0.000000 9.185690 0.000000
v 0.100000 9.185690 0.000000
v 0.100000 9.185690 -0.025000
v 0.000000 9.479975 -0.025000
v 0.000000 9.479975 0.000000
v 0.100000 9.479975 0.000000
v 0.100000 9.479975 -0.025000
v 0.000000 9.662787 -0.025000
v 0.000000 9.662787 0.000000
v 0.240020 9.662787 0.000000
v 0.240020 9.662787 -0.025000
v 0.305107 9.120768 -0.030515
v 0.305107 9.120768 0.000000
v 0.305107 9.544897 -0.030515
v 0.305107 9.544897 0.000000
vn -0.3477 -0.9265 0.1440
vn -0.7270 -0.6171 0.3011
vn -0.7527 0.5798 0.3118
vn -0.9239 -0.0057 0.3827
vn -0.3409 -0.4543 0.8230
vn -0.3008 0.6182 0.7262
vn -0.6604 0.6994 0.2735
vn -0.1440 -0.9265 0.3477
vn -0.8230 -0.4543 0.3409
vn -0.3818 0.0673 0.9218
vn -0.1809 0.8812 0.4367
vn -0.3825 0.0311 0.9234
vn -0.9218 0.0673 0.3818
vn -0.4367 0.8812 0.1809
vn -0.9234 0.0311 0.3825
vn -0.2735 0.6994 0.6604
vn -0.7262 0.6182 0.3008
vn -0.9214 -0.0726 0.3817
vn -0.9099 0.1732 0.3769
vn -0.3817 -0.0726 0.9214
vn -0.3769 0.1732 0.9099
vn -0.1269 0.9434 0.3063
vn -0.3826 -0.0138 0.9238
vn -0.1555 0.9137 0.3754
vn -0.3063 0.9434 0.1269
vn -0.9238 -0.0138 0.3826
vn -0.3754 0.9137 0.1555
vn -0.3827 -0.0057 0.9239
vn -0.3118 0.5798 0.7527
vn -0.3011 -0.6171 0.7270
vn -0.8411 -0.4137 0.3484
vn -0.3484 -0.4137 0.8411
vn -0.1179 0.9514 0.2846
vn -0.2846 0.9514 0.1179
vn -0.8359 -0.4258 0.3463
vn -0.3463 -0.4258 0.8359
vn -0.9312 0.1093 0.3477
vn -0.3510 0.3986 0.8473
vn -0.2703 0.7079 0.6526
vn -0.6250 0.7418 0.2431
vn -0.0000 -1.0000 -0.0000
vn 1.0000 -0.0000 -0.0000
vn -0.0000 1.0000 -0.0000
vn -0.0000 -0.0000 -1.0000
vn -0.0000 -0.9491 0.3148
vn -0.0826 -0.9966 -0.0000
vn 0.3018 -0.9534 -0.0000
vn -0.7752 0.6317 -0.0000
vn -0.0000 0.1996 0.9799
vn -0.0000 -0.0000 1.0000
vn -0.7939 -0.6081 -0.0000
vn -1.0000 -0.0000 -0.0000
vn 0.0269 -0.0000 0.9996
vn 0.3018 0.9534 -0.0000
vn 0.3477 -0.9265 0.1440
vn 0.7270 -0.6171 0.3011
vn 0.7527 0.5798 0.3118
vn 0.9239 -0.0057 0.3827
vn 0.3409 -0.4543 0.8230
vn 0.3008 0.6182 0.7262
vn 0.6604 0.6994 0.2735
vn 0.1440 -0.9265 0.3477
vn 0.8230 -0.4543 0.3409
vn 0.3818 0.0673 0.9218
vn 0.1809 0.8812 0.4367
vn 0.3825 0.0311 0.9234
vn 0.9218 0.0673 0.3818
vn 0.4367 0.8812 0.1809
vn 0.9234 0.0311 0.3825
vn 0.2735 0.6994 0.6604
vn 0.7262 0.6182 0.3008
vn 0.9214 -0.0726 0.3817
vn 0.9099 0.1732 0.3769
vn 0.3817 -0.0726 0.9214
vn 0.3769 0.1732 0.9099
vn 0.1269 0.9434 0.3063
vn 0.3826 -0.0138 0.9238
vn 0.1555 0.9137 0.3754
vn 0.3063 0.9434 0.1269
vn 0.9238 -0.0138 0.3826
vn 0.3754 0.9137 0.1555
vn 0.3827 -0.0057 0.9239
vn 0.3118 0.5798 0.7527
vn 0.3011 -0.6171 0.7270
vn 0.8411 -0.4137 0.3484
vn 0.3484 -0.4137 0.8411
vn 0.1179 0.9514 0.2846
vn 0.2846 0.9514 0.1179
vn 0.8359 -0.4258 0.3463
vn 0.3463 -0.4258 0.8359
vn 0.9312 0.1093 0.3477
vn 0.3510 0.3986 0.8473
vn 0.2703 0.7079 0.6526
vn 0.6250 0.7418 0.2431
vn 0.0826 -0.9966 -0.0000
vn -0.3018 -0.9534 -0.0000
vn 0.7752 0.6317 -0.0000
vn 0.7939 -0.6081 -0.0000
vn -0.0269 -0.0000 0.9996
vn -0.3018 0.9534 -0.0000
vn -0.3477 -0.9265 -0.1440
vn -0.7270 -0.6171 -0.3011
vn -0.7527 0.5798 -0.3118
vn -0.9239 -0.0057 -0.3827
vn -0.3409 -0.4543 -0.8230
vn -0.3008 0.6182 -0.7262
vn -0.6604 0.6994 -0.2735
vn -0.1440 -0.9265 -0.3477
vn -0.8230 -0.4543 -0.3409
vn -0.3818 0.0673 -0.9218
vn -0.1809 0.8812 -0.4367
vn -0.3825 0.0311 -0.9234
vn -0.9218 0.0673 -0.3818
vn -0.4367 0.8812 -0.1809
vn -0.9234 0.0311 -0.3825
vn -0.2735 0.6994 -0.6604
vn -0.7262 0.6182 -0.3008
vn -0.9214 -0.0726 -0.3817
vn -0.9099 0.1732 -0.3769
vn -0.3817 -0.0726 -0.9214
vn -0.3769 0.1732 -0.9099
vn -0.1269 0.9434 -0.3063
vn -0.3826 -0.0138 -0.9238
vn -0.1555 0.9137 -0.3754
vn -0.3063 0.9434 -0.1269
vn -0.9238 -0.0138 -0.3826
vn -0.3754 0.9137 -0.1555
vn -0.3827 -0.0057 -0.9239
vn -0.3118 0.5798 -0.7527
vn -0.3011 -0.6171 -0.7270
vn -0.8411 -0.4137 -0.3484
vn -0.3484 -0.4137 -0.8411
vn -0.1179 0.9514 -0.2846
vn -0.2846 0.9514 -0.1179
vn -0.8359 -0.4258 -0.3463
vn -0.3463 -0.4258 -0.8359
vn -0.9312 0.1093 -0.3477
vn -0.3510 0.3986 -0.8473
vn -0.2703 0.7079 -0.6526
vn -0.6250 0.7418 -0.2431
vn -0.0000 -0.9491 -0.3148
vn -0.0000 0.1996 -0.9799
vn 0.0269 -0.0000 -0.9996
vn 0.3477 -0.9265 -0.1440
vn 0.7270 -0.6171 -0.3011
vn 0.7527 0.5798 -0.3118
vn 0.9239 -0.0057 -0.3827
vn 0.3409 -0.4543 -0.8230
vn 0.3008 0.6182 -0.7262
vn 0.6604 0.6994 -0.2735
vn 0.1440 -0.9265 -0.3477
vn 0.8230 -0.4543 -0.3409
vn 0.3818 0.0673 -0.9218
vn 0.1809 0.8812 -0.4367
vn 0.3825 0.0311 -0.9234
vn 0.9218 0.0673 -0.3818
vn 0.4367 0.8812 -0.1809
vn 0.9234 0.0311 -0.3825
vn 0.2735 0.6994 -0.6604
vn 0.7262 0.6182 -0.3008
vn 0.9214 -0.0726 -0.3817
vn 0.9099 0.1732 -0.3769
vn 0.3817 -0.0726 -0.9214
vn 0.3769 0.1732 -0.9099
vn 0.1269 0.9434 -0.3063
vn 0.3826 -0.0138 -0.9238
vn 0.1555 0.9137 -0.3754
vn 0.3063 0.9434 -0.1269
vn 0.9238 -0.0138 -0.3826
vn 0.3754 0.9137 -0.1555
vn 0.3827 -0.0057 -0.9239
vn 0.3118 0.5798 -0.7527
vn 0.3011 -0.6171 -0.7270
vn 0.8411 -0.4137 -0.3484
vn 0.3484 -0.4137 -0.8411
vn 0.1179 0.9514 -0.2846
vn 0.2846 0.9514 -0.1179
vn 0.8359 -0.4258 -0.3463
vn 0.3463 -0.4258 -0.8359
vn 0.9312 0.1093 -0.3477
vn 0.3510 0.3986 -0.8473
vn 0.2703 0.7079 -0.6526
vn 0.6250 0.7418 -0.2431
vn -0.0269 -0.0000 -0.9996
s 0
f 106//1 100//1 9//1 11//1
f 14//2 15//2 110//2 109//2
f 15//3 16//3 111//3 110//3
f 1//4 14//4 109//4 84//4
f 46//5 44//5 7//5 8//5
f 5//6 7//6 44//6 39//6
f 98//7 94//7 6//7 8//7
f 11//8 9//8 48//8 33//8
f 8//9 7//9 96//9 98//9
f 39//10 38//10 4//10 5//10
f 38//11 35//11 3//11 4//11
f 34//12 42//12 6//12 2//12
f 5//13 4//13 91//13 92//13
f 4//14 3//14 88//14 91//14
f 2//15 6//15 94//15 87//15
f 8//16 6//16 42//16 46//16
f 92//17 96//17 7//17 5//17
f 99//18 10//18 9//18 100//18
f 3//19 10//19 99//19 88//19
f 10//20 49//20 48//20 9//20
f 35//21 49//21 10//21 3//21
f 1//22 13//22 31//22 29//22
f 13//23 12//23 32//23 31//23
f 12//24 11//24 33//24 32//24
f 84//25 108//25 13//25 1//25
f 108//26 107//26 12//26 13//26
f 107//27 106//27 11//27 12//27
f 29//28 58//28 14//28 1//28
f 59//29 60//29 16//29 15//29
f 58//30 59//30 15//30 14//30
f 111//31 16//31 17//31 116//31
f 16//32 60//32 62//32 17//32
f 17//33 62//33 64//33 18//33
f 116//34 17//34 18//34 117//34
f 117//35 18//35 19//35 119//35
f 18//36 64//36 66//36 19//36
f 123//37 21//37 22//37 122//37
f 21//38 70//38 68//38 22//38
f 19//39 66//39 70//39 21//39
f 119//40 19//40 21//40 123//40
f 200//41 34//41 2//41 87//41
f 72//42 205//42 209//42 73//42
f 20//43 126//43 122//43 22//43
f 72//43 20//43 22//43 68//43
f 205//42 72//42 68//42 203//42
f 126//43 205//43 203//43 122//43
f 209//44 127//44 129//44 213//44
f 20//45 72//45 73//45 23//45
f 205//44 126//44 127//44 209//44
f 126//46 20//46 23//46 127//46
f 129//47 24//47 27//47 136//47
f 127//48 23//48 24//48 129//48
f 73//42 209//42 213//42 75//42
f 23//49 73//49 75//49 24//49
f 25//50 77//50 79//50 26//50
f 75//42 213//42 217//42 77//42
f 24//50 75//50 77//50 25//50
f 213//44 129//44 131//44 217//44
f 133//43 26//43 79//43 221//43
f 217//44 131//44 133//44 221//44
f 131//51 25//51 26//51 133//51
f 77//42 217//42 221//42 79//42
f 136//52 27//52 28//52 138//52
f 131//44 129//44 136//44 138//44
f 24//53 25//53 28//53 27//53
f 25//54 131//54 138//54 28//54
f 175//55 52//55 50//55 167//55
f 55//56 178//56 179//56 56//56
f 56//57 179//57 180//57 57//57
f 30//58 142//58 178//58 55//58
f 46//59 47//59 45//59 44//59
f 41//60 39//60 44//60 45//60
f 165//61 47//61 43//61 159//61
f 52//62 33//62 48//62 50//62
f 47//63 165//63 162//63 45//63
f 39//64 41//64 40//64 38//64
f 38//65 40//65 37//65 35//65
f 34//66 36//66 43//66 42//66
f 41//67 156//67 155//67 40//67
f 40//68 155//68 150//68 37//68
f 36//69 149//69 159//69 43//69
f 47//70 46//70 42//70 43//70
f 156//71 41//71 45//71 162//71
f 166//72 167//72 50//72 51//72
f 37//73 150//73 166//73 51//73
f 51//74 50//74 48//74 49//74
f 35//75 37//75 51//75 49//75
f 30//76 29//76 31//76 54//76
f 54//77 31//77 32//77 53//77
f 53//78 32//78 33//78 52//78
f 142//79 30//79 54//79 177//79
f 177//80 54//80 53//80 176//80
f 176//81 53//81 52//81 175//81
f 29//82 30//82 55//82 58//82
f 59//83 56//83 57//83 60//83
f 58//84 55//84 56//84 59//84
f 180//85 188//85 61//85 57//85
f 57//86 61//86 62//86 60//86
f 61//87 63//87 64//87 62//87
f 188//88 190//88 63//88 61//88
f 190//89 193//89 65//89 63//89
f 63//90 65//90 66//90 64//90
f 199//91 198//91 71//91 69//91
f 69//92 71//92 68//92 70//92
f 65//93 69//93 70//93 66//93
f 193//94 199//94 69//94 65//94
f 200//41 149//41 36//41 34//41
f 67//43 71//43 198//43 206//43
f 72//43 68//43 71//43 67//43
f 206//43 198//43 203//43 205//43
f 209//44 213//44 214//44 210//44
f 67//45 74//45 73//45 72//45
f 205//44 209//44 210//44 206//44
f 206//95 210//95 74//95 67//95
f 214//96 225//96 81//96 76//96
f 210//97 214//97 76//97 74//97
f 74//49 76//49 75//49 73//49
f 78//50 80//50 79//50 77//50
f 76//50 78//50 77//50 75//50
f 213//44 217//44 218//44 214//44
f 222//43 221//43 79//43 80//43
f 217//44 221//44 222//44 218//44
f 218//98 222//98 80//98 78//98
f 225//42 227//42 82//42 81//42
f 218//44 227//44 225//44 214//44
f 76//99 81//99 82//99 78//99
f 78//100 82//100 227//100 218//100
f 106//101 103//101 101//101 100//101
f 112//102 109//102 110//102 113//102
f 113//103 110//103 111//103 114//103
f 83//104 84//104 109//104 112//104
f 163//105 97//105 95//105 160//105
f 90//106 152//106 160//106 95//106
f 98//107 97//107 93//107 94//107
f 103//108 144//108 168//108 101//108
f 97//109 98//109 96//109 95//109
f 152//110 90//110 89//110 151//110
f 151//111 89//111 86//111 146//111
f 145//112 85//112 93//112 157//112
f 90//113 92//113 91//113 89//113
f 89//114 91//114 88//114 86//114
f 85//115 87//115 94//115 93//115
f 97//116 163//116 157//116 93//116
f 92//117 90//117 95//117 96//117
f 99//118 100//118 101//118 102//118
f 86//119 88//119 99//119 102//119
f 102//120 101//120 168//120 169//120
f 146//121 86//121 102//121 169//121
f 83//122 139//122 141//122 105//122
f 105//123 141//123 143//123 104//123
f 104//124 143//124 144//124 103//124
f 84//125 83//125 105//125 108//125
f 108//126 105//126 104//126 107//126
f 107//127 104//127 103//127 106//127
f 139//128 83//128 112//128 184//128
f 185//129 113//129 114//129 186//129
f 184//130 112//130 113//130 185//130
f 111//131 116//131 115//131 114//131
f 114//132 115//132 189//132 186//132
f 115//133 118//133 192//133 189//133
f 116//134 117//134 118//134 115//134
f 117//135 119//135 120//135 118//135
f 118//136 120//136 195//136 192//136
f 123//137 122//137 125//137 124//137
f 124//138 125//138 197//138 202//138
f 120//139 124//139 202//139 195//139
f 119//140 123//140 124//140 120//140
f 200//41 87//41 85//41 145//41
f 207//42 208//42 209//42 205//42
f 121//43 125//43 122//43 126//43
f 207//43 197//43 125//43 121//43
f 205//42 203//42 197//42 207//42
f 121//141 128//141 208//141 207//141
f 126//46 127//46 128//46 121//46
f 129//47 136//47 135//47 130//47
f 127//48 129//48 130//48 128//48
f 208//42 212//42 213//42 209//42
f 128//142 130//142 212//142 208//142
f 132//44 134//44 220//44 216//44
f 212//42 216//42 217//42 213//42
f 130//44 132//44 216//44 212//44
f 133//43 221//43 220//43 134//43
f 131//51 133//51 134//51 132//51
f 216//42 220//42 221//42 217//42
f 136//52 138//52 137//52 135//52
f 130//143 135//143 137//143 132//143
f 132//54 137//54 138//54 131//54
f 175//144 167//144 170//144 172//144
f 181//145 182//145 179//145 178//145
f 182//146 183//146 180//146 179//146
f 140//147 181//147 178//147 142//147
f 163//148 160//148 161//148 164//148
f 154//149 161//149 160//149 152//149
f 165//150 159//150 158//150 164//150
f 172//151 170//151 168//151 144//151
f 164//152 161//152 162//152 165//152
f 152//153 151//153 153//153 154//153
f 151//154 146//154 148//154 153//154
f 145//155 157//155 158//155 147//155
f 154//156 153//156 155//156 156//156
f 153//157 148//157 150//157 155//157
f 147//158 158//158 159//158 149//158
f 164//159 158//159 157//159 163//159
f 156//160 162//160 161//160 154//160
f 166//161 171//161 170//161 167//161
f 148//162 171//162 166//162 150//162
f 171//163 169//163 168//163 170//163
f 146//164 169//164 171//164 148//164
f 140//165 174//165 141//165 139//165
f 174//166 173//166 143//166 141//166
f 173//167 172//167 144//167 143//167
f 142//168 177//168 174//168 140//168
f 177//169 176//169 173//169 174//169
f 176//170 175//170 172//170 173//170
f 139//171 184//171 181//171 140//171
f 185//172 186//172 183//172 182//172
f 184//173 185//173 182//173 181//173
f 180//174 183//174 187//174 188//174
f 183//175 186//175 189//175 187//175
f 187//176 189//176 192//176 191//176
f 188//177 187//177 191//177 190//177
f 190//178 191//178 194//178 193//178
f 191//179 192//179 195//179 194//179
f 199//180 201//180 204//180 198//180
f 201//181 202//181 197//181 204//181
f 194//182 195//182 202//182 201//182
f 193//183 194//183 201//183 199//183
f 200//41 145//41 147//41 149//41
f 196//43 206//43 198//43 204//43
f 207//43 196//43 204//43 197//43
f 196//141 207//141 208//141 211//141
f 206//95 196//95 211//95 210//95
f 214//96 215//96 224//96 225//96
f 210//97 211//97 215//97 214//97
f 211//142 208//142 212//142 215//142
f 219//44 216//44 220//44 223//44
f 215//44 212//44 216//44 219//44
f 222//43 223//43 220//43 221//43
f 218//98 219//98 223//98 222//98
f 225//42 224//42 226//42 227//42
f 215//184 219//184 226//184 224//184
f 219//100 218//100 227//100 226//100
