# Blender 3.6.5
# www.blender.org
mtllib rook.mtl
o Rook.001
v -0.000000 0.000000 -1.999999
v 0.000000 5.759880 -1.145871
v 1.414213 0.000000 -1.414213
v 0.810254 5.759880 -0.810253
v 2.000000 0.000000 0.000000
v 1.145872 5.759880 0.000000
v 1.414213 0.000000 1.414214
v 0.810254 5.759880 0.810254
v -0.000001 0.000000 2.000000
v -0.000000 5.759880 1.145872
v -1.414214 0.000000 1.414213
v -0.810254 5.759880 0.810254
v -2.000000 0.000000 -0.000001
v -1.145872 5.759880 -0.000001
v -1.414212 0.000000 -1.414215
v -0.810252 5.759880 -0.810255
v 0.000000 1.854728 -1.314363
v 0.000000 2.041058 -1.315630
v 0.930291 2.041058 -0.930290
v 0.929395 1.854728 -0.929395
v 1.315630 2.041058 0.000000
v 1.314363 1.854728 0.000000
v 0.930291 2.041058 0.930291
v 0.929395 1.854728 0.929396
v -0.000000 2.041058 1.315631
v -0.000000 1.854728 1.314364
v -0.930291 2.041058 0.930291
v -0.929396 1.854728 0.929395
v -1.315630 2.041058 -0.000001
v -1.314363 1.854728 -0.000001
v -0.930290 2.041058 -0.930292
v -0.929394 1.854728 -0.929396
v -0.000000 0.214252 -1.992781
v 1.409109 0.214252 -1.409109
v 1.992782 0.214252 0.000000
v 1.409109 0.214252 1.409110
v -0.000001 0.214252 1.992782
v -1.409110 0.214252 1.409109
v -1.992782 0.214252 -0.000001
v -1.409107 0.214252 -1.409110
v 0.000000 1.052550 -1.848506
v 1.307091 1.052550 -1.307091
v 1.848507 1.052550 0.000000
v 1.307091 1.052550 1.307092
v -0.000001 1.052550 1.848507
v -1.307092 1.052550 1.307091
v -1.848506 1.052550 -0.000001
v -1.307090 1.052550 -1.307093
v 0.000000 0.571338 -1.614609
v 1.141701 0.571338 -1.141700
v 1.614609 0.571338 0.000000
v 1.141701 0.571338 1.141701
v -0.000000 0.571338 1.614609
v -1.141701 0.571338 1.141701
v -1.614609 0.571338 -0.000001
v -1.141699 0.571338 -1.141702
v 0.000000 2.238852 -1.192035
v 0.000000 5.101516 -0.977538
v 0.000000 5.247030 -1.406656
v 0.994657 5.247030 -0.994656
v 0.691224 5.101516 -0.691224
v 0.842897 2.238852 -0.842896
v 1.406657 5.247030 0.000000
v 0.977539 5.101516 0.000000
v 1.192036 2.238852 0.000000
v 0.994657 5.247030 0.994657
v 0.691224 5.101516 0.691225
v 0.842897 2.238852 0.842897
v -0.000000 5.247030 1.406657
v -0.000000 5.101516 0.977539
v -0.000000 2.238852 1.192036
v -0.994657 5.247030 0.994656
v -0.691225 5.101516 0.691224
v -0.842897 2.238852 0.842896
v -1.406657 5.247030 -0.000001
v -0.977539 5.101516 -0.000001
v -1.192036 2.238852 -0.000001
v -0.994655 5.247030 -0.994657
v -0.691223 5.101516 -0.691225
v -0.842895 2.238852 -0.842897
v -0.961650 5.759880 0.961649
v -0.000000 5.759880 1.359978
v -1.359977 5.759880 -0.000001
v -0.961648 5.759880 -0.961650
v 0.000000 5.759880 -1.359977
v 0.961649 5.759880 -0.961649
v 1.359978 5.759880 0.000000
v 0.961649 5.759880 0.961650
v -0.810254 5.384648 0.810254
v -0.000000 5.384648 1.145872
v -1.145872 5.384648 -0.000001
v -0.810252 5.384648 -0.810255
v 0.000000 5.384648 -1.145871
v 0.810254 5.384648 -0.810253
v 1.145872 5.384648 0.000000
v 0.810254 5.384648 0.810254
v 0.000000 5.384648 -1.392511
v 0.984654 5.384648 -0.984654
v 1.392512 5.384648 0.000000
v 0.984654 5.384648 0.984655
v -0.000000 5.384648 1.392512
v -0.984655 5.384648 0.984654
v -1.392511 5.384648 -0.000001
v -0.984653 5.384648 -0.984655
v -0.939407 0.214252 1.603667
v -0.469704 0.214252 1.798224
v -0.471405 0.000000 1.804738
v -0.942810 0.000000 1.609476
v -0.761134 0.571338 1.299337
v -0.380567 0.571338 1.456973
v -0.871395 1.052550 1.487563
v -0.435698 1.052550 1.668035
v -0.641100 5.759880 1.094425
v -0.320550 5.759880 1.227202
v -0.620194 2.041058 1.058737
v -0.310097 2.041058 1.187184
v -0.619597 1.854728 1.057718
v -0.309799 1.854728 1.186041
v -0.280966 2.238852 1.075656
v -0.561931 2.238852 0.959276
v -0.230408 5.101516 0.882101
v -0.460816 5.101516 0.786662
v -0.331553 5.247030 1.269323
v -0.663105 5.247030 1.131990
v -0.540169 5.759880 0.922126
v -0.270085 5.759880 1.033999
v -0.540170 5.384648 0.922126
v -0.270085 5.384648 1.033999
v -0.328219 5.384648 1.256559
v -0.656437 5.384648 1.120607
v -1.798224 0.214252 0.469702
v -1.603667 0.214252 0.939406
v -1.609476 0.000000 0.942808
v -1.804738 0.000000 0.471404
v -1.456973 0.571338 0.380566
v -1.299337 0.571338 0.761133
v -1.668035 1.052550 0.435696
v -1.487564 1.052550 0.871394
v -1.186041 1.854728 0.309798
v -1.057718 1.854728 0.619596
v -1.227201 5.759880 0.320549
v -1.094426 5.759880 0.641099
v -1.187184 2.041058 0.310096
v -1.058738 2.041058 0.620194
v -0.959276 2.238852 0.561931
v -1.075656 2.238852 0.280965
v -0.786663 5.101516 0.460816
v -0.882101 5.101516 0.230408
v -1.131990 5.247030 0.663104
v -1.269323 5.247030 0.331551
v -1.033999 5.759880 0.270084
v -0.922127 5.759880 0.540169
v -1.033999 5.384648 0.270084
v -0.922127 5.384648 0.540169
v -1.120607 5.384648 0.656436
v -1.256559 5.384648 0.328217
v 0.469703 0.214252 1.798225
v 0.939406 0.214252 1.603667
v 0.942809 0.000000 1.609476
v 0.471404 0.000000 1.804738
v 0.380567 0.571338 1.456973
v 0.761134 0.571338 1.299337
v 0.435697 1.052550 1.668036
v 0.871394 1.052550 1.487564
v 0.309798 1.854728 1.186041
v 0.619597 1.854728 1.057718
v 0.320550 5.759880 1.227202
v 0.641100 5.759880 1.094426
v 0.310097 2.041058 1.187184
v 0.620194 2.041058 1.058738
v 0.561931 2.238852 0.959277
v 0.280965 2.238852 1.075656
v 0.460816 5.101516 0.786663
v 0.230408 5.101516 0.882101
v 0.663104 5.247030 1.131990
v 0.331552 5.247030 1.269324
v 0.270084 5.759880 1.034000
v 0.540169 5.759880 0.922127
v 0.270084 5.384648 1.034000
v 0.540169 5.384648 0.922127
v 0.656436 5.384648 1.120607
v 0.328218 5.384648 1.256559
v 1.603667 0.214252 0.939407
v 1.798224 0.214252 0.469704
v 1.804738 0.000000 0.471405
v 1.609476 0.000000 0.942810
v 1.299337 0.571338 0.761134
v 1.456973 0.571338 0.380567
v 1.487563 1.052550 0.871395
v 1.668035 1.052550 0.435698
v 1.094425 5.759880 0.641100
v 1.227202 5.759880 0.320550
v 1.058738 2.041058 0.620194
v 1.187184 2.041058 0.310097
v 1.057718 1.854728 0.619597
v 1.186041 1.854728 0.309799
v 1.075656 2.238852 0.280966
v 0.959276 2.238852 0.561931
v 0.882101 5.101516 0.230408
v 0.786663 5.101516 0.460816
v 1.269323 5.247030 0.331553
v 1.131990 5.247030 0.663105
v 0.922127 5.759880 0.540170
v 1.033999 5.759880 0.270085
v 0.922127 5.384648 0.540170
v 1.033999 5.384648 0.270085
v 1.256559 5.384648 0.328218
v 1.120607 5.384648 0.656437
v 1.609475 0.000000 -0.942808
v 1.804738 0.000000 -0.471404
v 1.798224 0.214252 -0.469703
v 1.603667 0.214252 -0.939406
v 1.456973 0.571338 -0.380567
v 1.299337 0.571338 -0.761133
v 1.227202 5.759880 -0.320549
v 1.094425 5.759880 -0.641099
v 1.187184 2.041058 -0.310097
v 1.058738 2.041058 -0.620194
v 1.668035 1.052550 -0.435697
v 1.487563 1.052550 -0.871394
v 1.186041 1.854728 -0.309798
v 1.057718 1.854728 -0.619596
v 0.959276 2.238852 -0.561931
v 1.075656 2.238852 -0.280965
v 0.786663 5.101516 -0.460816
v 0.882101 5.101516 -0.230408
v 1.131990 5.247030 -0.663104
v 1.269323 5.247030 -0.331552
v 1.033999 5.759880 -0.270084
v 0.922127 5.759880 -0.540169
v 1.033999 5.384648 -0.270084
v 0.922127 5.384648 -0.540169
v 1.120607 5.384648 -0.656436
v 1.256559 5.384648 -0.328218
v 0.471404 0.000000 -1.804737
v 0.942809 0.000000 -1.609475
v 0.939406 0.214252 -1.603666
v 0.469703 0.214252 -1.798223
v 0.761134 0.571338 -1.299336
v 0.380567 0.571338 -1.456972
v 0.871394 1.052550 -1.487562
v 0.435697 1.052550 -1.668034
v 0.641100 5.759880 -1.094425
v 0.320550 5.759880 -1.227201
v 0.620194 2.041058 -1.058737
v 0.310097 2.041058 -1.187183
v 0.619597 1.854728 -1.057718
v 0.309798 1.854728 -1.186040
v 0.280966 2.238852 -1.075655
v 0.561931 2.238852 -0.959276
v 0.230408 5.101516 -0.882100
v 0.460816 5.101516 -0.786662
v 0.331552 5.247030 -1.269323
v 0.663104 5.247030 -1.131989
v 0.540169 5.759880 -0.922126
v 0.270085 5.759880 -1.033999
v 0.540169 5.384648 -0.922126
v 0.270085 5.384648 -1.033999
v 0.328218 5.384648 -1.256559
v 0.656436 5.384648 -1.120606
v -0.942808 0.000000 -1.609476
v -0.471404 0.000000 -1.804738
v -0.469702 0.214252 -1.798224
v -0.939405 0.214252 -1.603667
v -0.380566 0.571338 -1.456973
v -0.761133 0.571338 -1.299337
v -0.435697 1.052550 -1.668035
v -0.871393 1.052550 -1.487564
v -0.310097 2.041058 -1.187184
v -0.620193 2.041058 -1.058738
v -0.309798 1.854728 -1.186041
v -0.619596 1.854728 -1.057718
v -0.320549 5.759880 -1.227201
v -0.641099 5.759880 -1.094426
v -0.561930 2.238852 -0.959276
v -0.280965 2.238852 -1.075656
v -0.460815 5.101516 -0.786663
v -0.230408 5.101516 -0.882101
v -0.663103 5.247030 -1.131990
v -0.331552 5.247030 -1.269323
v -0.270084 5.759880 -1.033999
v -0.540168 5.759880 -0.922127
v -0.270084 5.384648 -1.033999
v -0.540168 5.384648 -0.922127
v -0.656435 5.384648 -1.120607
v -0.328218 5.384648 -1.256559
v -1.603665 0.214252 -0.939407
v -1.798223 0.214252 -0.469704
v -1.804737 0.000000 -0.471406
v -1.609474 0.000000 -0.942810
v -1.299336 0.571338 -0.761135
v -1.456972 0.571338 -0.380568
v -1.487562 1.052550 -0.871395
v -1.668034 1.052550 -0.435698
v -1.058736 2.041058 -0.620195
v -1.187183 2.041058 -0.310098
v -1.057717 1.854728 -0.619598
v -1.186040 1.854728 -0.309799
v -1.094424 5.759880 -0.641100
v -1.227201 5.759880 -0.320551
v -1.075655 2.238852 -0.280966
v -0.959275 2.238852 -0.561932
v -0.882100 5.101516 -0.230409
v -0.786662 5.101516 -0.460817
v -1.269323 5.247030 -0.331553
v -1.131989 5.247030 -0.663105
v -0.922126 5.759880 -0.540170
v -1.033999 5.759880 -0.270085
v -0.922126 5.384648 -0.540170
v -1.033999 5.384648 -0.270085
v -1.256559 5.384648 -0.328219
v -1.120606 5.384648 -0.656437
vn -0.3491 -0.4097 0.8428
vn 0.9239 -0.0063 -0.3827
vn -0.3491 -0.4097 -0.8428
vn -0.3259 0.5240 0.7869
vn -0.6604 0.6994 0.2735
vn 0.3815 0.0798 -0.9209
vn 0.3827 -0.0063 -0.9239
vn 0.7869 0.5240 -0.3259
vn 0.3259 0.5240 0.7869
vn 0.2735 0.6994 -0.6604
vn 0.9209 0.0798 -0.3815
vn 0.8428 -0.4097 -0.3491
vn 0.8428 -0.4097 0.3491
vn 0.3491 -0.4097 0.8428
vn 0.6604 0.6994 0.2735
vn 0.9209 0.0798 0.3815
vn 0.9239 -0.0063 0.3827
vn 0.3491 -0.4097 -0.8428
vn -0.8428 -0.4097 -0.3491
vn 0.3827 -0.0063 0.9239
vn 0.3815 0.0798 0.9209
vn -0.0000 -1.0000 -0.0000
vn -0.3827 -0.0000 -0.9239
vn -0.8428 -0.4097 0.3491
vn -0.7869 0.5240 -0.3259
vn -0.3827 -0.0063 0.9239
vn 0.3825 0.0311 0.9234
vn -0.3815 0.0798 0.9209
vn -0.3825 0.0311 0.9234
vn 0.9234 0.0311 -0.3825
vn 0.9234 0.0311 0.3825
vn 0.3259 0.5240 -0.7869
vn -0.9239 -0.0063 0.3827
vn -0.9209 0.0798 0.3815
vn -0.3825 0.0311 -0.9234
vn -0.9234 0.0311 0.3825
vn 0.3825 0.0311 -0.9234
vn -0.9234 0.0311 -0.3825
vn 0.7869 0.5240 0.3259
vn -0.9239 -0.0063 -0.3827
vn -0.9209 0.0798 -0.3815
vn -0.2735 0.6994 -0.6604
vn 0.6604 0.6994 -0.2735
vn -0.3259 0.5240 -0.7869
vn -0.3827 -0.0063 -0.9239
vn -0.2735 0.6994 0.6604
vn -0.3815 0.0798 -0.9209
vn -0.6604 0.6994 -0.2735
vn -0.7869 0.5240 0.3259
vn 0.2735 0.6994 0.6604
vn -0.3314 0.5000 -0.8001
vn -0.3818 0.0691 -0.9217
vn -0.1319 -0.9388 -0.3183
vn -0.8001 0.5000 -0.3314
vn -0.9217 0.0691 -0.3818
vn -0.3183 -0.9388 -0.1319
vn -0.8001 0.5000 0.3314
vn -0.9217 0.0691 0.3818
vn -0.3183 -0.9388 0.1319
vn -0.3314 0.5000 0.8001
vn -0.3818 0.0691 0.9217
vn -0.1319 -0.9388 0.3183
vn 0.3314 0.5000 0.8001
vn 0.3818 0.0691 0.9217
vn 0.1319 -0.9388 0.3183
vn 0.8001 0.5000 0.3314
vn 0.9217 0.0691 0.3818
vn 0.3183 -0.9388 0.1319
vn 0.8001 0.5000 -0.3314
vn 0.9217 0.0691 -0.3818
vn 0.3183 -0.9388 -0.1319
vn 0.3314 0.5000 -0.8001
vn 0.3818 0.0691 -0.9217
vn 0.1319 -0.9388 -0.3183
vn -0.0000 1.0000 -0.0000
vn -0.9239 -0.0000 0.3827
vn 0.3827 -0.0000 0.9239
vn 0.9239 -0.0000 -0.3827
vn -0.9239 -0.0000 -0.3827
vn -0.3827 -0.0000 0.9239
vn 0.9239 -0.0000 0.3827
vn 0.3827 -0.0000 -0.9239
vn -0.3810 0.0945 -0.9197
vn -0.9197 0.0945 -0.3810
vn -0.9197 0.0945 0.3810
vn -0.3810 0.0945 0.9197
vn 0.3810 0.0945 0.9197
vn 0.9197 0.0945 0.3810
vn 0.9197 0.0945 -0.3810
vn 0.3810 0.0945 -0.9197
vn -0.9675 -0.0000 -0.2527
vn 0.8629 -0.0000 0.5054
vn -0.2527 -0.0000 -0.9675
vn -0.8629 -0.0000 -0.5054
vn -0.9675 -0.0000 0.2527
vn 0.5054 -0.0000 -0.8629
vn 0.2527 -0.0000 0.9675
vn -0.5055 -0.0000 0.8629
vn 0.9675 -0.0000 -0.2527
vn -0.8629 -0.0000 0.5054
vn 0.2527 -0.0000 -0.9675
vn 0.8629 -0.0000 -0.5054
vn -0.5054 -0.0000 -0.8629
vn 0.9675 -0.0000 0.2527
vn 0.5054 -0.0000 0.8629
vn -0.2527 -0.0000 0.9675
s 0
usemtl 
f 109//1 111//1 46//1 54//1
f 221//2 217//2 21//2 22//2
f 265//3 267//3 41//3 49//3
f 118//4 112//4 45//4 26//4
f 136//5 132//5 38//5 54//5
f 260//6 243//6 86//6 98//6
f 247//7 245//7 19//7 20//7
f 222//8 220//8 42//8 20//8
f 166//9 164//9 44//9 24//9
f 240//10 238//10 33//10 49//10
f 234//11 215//11 87//11 99//11
f 213//12 219//12 43//12 51//12
f 187//13 189//13 44//13 52//13
f 161//14 163//14 45//14 53//14
f 188//15 184//15 35//15 51//15
f 208//16 191//16 88//16 100//16
f 195//17 193//17 23//17 24//17
f 239//18 241//18 42//18 50//18
f 291//19 293//19 48//19 56//19
f 165//20 169//20 25//20 26//20
f 182//21 167//21 82//21 101//21
f 9//22 107//22 108//22 11//22 133//22 134//22 13//22 289//22 290//22 15//22 261//22 262//22 1//22 235//22 236//22 3//22 209//22 210//22 5//22 185//22 186//22 7//22 159//22 160//22
f 178//23 8//23 96//23 180//23
f 135//24 137//24 47//24 55//24
f 298//25 294//25 47//25 30//25
f 117//26 115//26 27//26 28//26
f 160//27 157//27 37//27 9//27
f 130//28 113//28 81//28 102//28
f 108//29 105//29 38//29 11//29
f 210//30 211//30 35//30 5//30
f 186//31 183//31 36//31 7//31
f 248//32 242//32 41//32 17//32
f 139//33 143//33 29//33 30//33
f 156//34 141//34 83//34 103//34
f 262//35 263//35 33//35 1//35
f 134//36 131//36 39//36 13//36
f 236//37 237//37 34//37 3//37
f 290//38 287//38 40//38 15//38
f 196//39 190//39 43//39 22//39
f 297//40 295//40 31//40 32//40
f 312//41 299//41 84//41 104//41
f 266//42 264//42 40//42 56//42
f 214//43 212//43 34//43 50//43
f 272//44 268//44 48//44 32//44
f 271//45 269//45 18//45 17//45
f 110//46 106//46 37//46 53//46
f 286//47 273//47 85//47 97//47
f 292//48 288//48 39//48 55//48
f 140//49 138//49 46//49 28//49
f 162//50 158//50 36//50 52//50
f 269//51 276//51 57//51 18//51
f 276//52 278//52 58//52 57//52
f 278//53 280//53 59//53 58//53
f 295//54 302//54 80//54 31//54
f 302//55 304//55 79//55 80//55
f 304//56 306//56 78//56 79//56
f 143//57 146//57 77//57 29//57
f 146//58 148//58 76//58 77//58
f 148//59 150//59 75//59 76//59
f 115//60 120//60 74//60 27//60
f 120//61 122//61 73//61 74//61
f 122//62 124//62 72//62 73//62
f 169//63 172//63 71//63 25//63
f 172//64 174//64 70//64 71//64
f 174//65 176//65 69//65 70//65
f 193//66 198//66 68//66 23//66
f 198//67 200//67 67//67 68//67
f 200//68 202//68 66//68 67//68
f 217//69 224//69 65//69 21//69
f 224//70 226//70 64//70 65//70
f 226//71 228//71 63//71 64//71
f 245//72 250//72 62//72 19//72
f 250//73 252//73 61//73 62//73
f 252//74 254//74 60//74 61//74
f 125//75 12//75 81//75 113//75
f 151//75 14//75 83//75 141//75
f 307//75 16//75 84//75 299//75
f 281//75 2//75 85//75 273//75
f 255//75 4//75 86//75 243//75
f 229//75 6//75 87//75 215//75
f 203//75 8//75 88//75 191//75
f 177//75 10//75 82//75 167//75
f 89//75 127//75 128//75 90//75 179//75 180//75 96//75 205//75 206//75 95//75 231//75 232//75 94//75 257//75 258//75 93//75 283//75 284//75 92//75 309//75 310//75 91//75 153//75 154//75
f 230//76 4//76 94//76 232//76
f 282//77 16//77 92//77 284//77
f 152//78 12//78 89//78 154//78
f 204//79 6//79 95//79 206//79
f 256//80 2//80 93//80 258//80
f 308//81 14//81 91//81 310//81
f 126//82 10//82 90//82 128//82
f 280//83 286//83 97//83 59//83
f 306//84 312//84 104//84 78//84
f 150//85 156//85 103//85 75//85
f 124//86 130//86 102//86 72//86
f 176//87 182//87 101//87 69//87
f 202//88 208//88 100//88 66//88
f 228//89 234//89 99//89 63//89
f 254//90 260//90 98//90 60//90
f 69//86 101//86 129//86 123//86
f 123//86 129//86 130//86 124//86
f 12//82 125//82 127//82 89//82
f 129//91 114//91 126//91 128//91
f 10//75 126//75 114//75 82//75
f 130//92 127//92 125//92 113//92
f 70//62 69//62 123//62 121//62
f 121//62 123//62 124//62 122//62
f 71//61 70//61 121//61 119//61
f 119//61 121//61 122//61 120//61
f 25//60 71//60 119//60 116//60
f 116//60 119//60 120//60 115//60
f 54//46 38//46 105//46 109//46
f 109//46 105//46 106//46 110//46
f 9//29 37//29 106//29 107//29
f 107//29 106//29 105//29 108//29
f 101//28 82//28 114//28 129//28
f 130//75 129//75 128//75 127//75
f 26//26 25//26 116//26 118//26
f 118//26 116//26 115//26 117//26
f 28//4 46//4 111//4 117//4
f 117//4 111//4 112//4 118//4
f 53//1 45//1 112//1 110//1
f 110//1 112//1 111//1 109//1
f 72//85 102//85 155//85 149//85
f 149//85 155//85 156//85 150//85
f 14//78 151//78 153//78 91//78
f 12//75 152//75 142//75 81//75
f 73//59 72//59 149//59 147//59
f 147//59 149//59 150//59 148//59
f 74//58 73//58 147//58 145//58
f 145//58 147//58 148//58 146//58
f 27//57 74//57 145//57 144//57
f 144//57 145//57 146//57 143//57
f 30//49 47//49 137//49 139//49
f 139//49 137//49 138//49 140//49
f 11//36 38//36 132//36 133//36
f 133//36 132//36 131//36 134//36
f 102//34 81//34 142//34 155//34
f 28//33 27//33 144//33 140//33
f 140//33 144//33 143//33 139//33
f 54//24 46//24 138//24 136//24
f 136//24 138//24 137//24 135//24
f 55//5 39//5 131//5 135//5
f 135//5 131//5 132//5 136//5
f 66//87 100//87 181//87 175//87
f 175//87 181//87 182//87 176//87
f 8//75 178//75 168//75 88//75
f 67//65 66//65 175//65 173//65
f 173//65 175//65 176//65 174//65
f 68//64 67//64 173//64 171//64
f 171//64 173//64 174//64 172//64
f 23//63 68//63 171//63 170//63
f 170//63 171//63 172//63 169//63
f 53//50 37//50 157//50 161//50
f 161//50 157//50 158//50 162//50
f 7//27 36//27 158//27 159//27
f 159//27 158//27 157//27 160//27
f 10//23 177//23 179//23 90//23
f 100//21 88//21 168//21 181//21
f 24//20 23//20 170//20 166//20
f 166//20 170//20 169//20 165//20
f 52//14 44//14 164//14 162//14
f 162//14 164//14 163//14 161//14
f 26//9 45//9 163//9 165//9
f 165//9 163//9 164//9 166//9
f 63//88 99//88 207//88 201//88
f 201//88 207//88 208//88 202//88
f 8//79 203//79 205//79 96//79
f 6//75 204//75 192//75 87//75
f 64//68 63//68 201//68 199//68
f 199//68 201//68 202//68 200//68
f 65//67 64//67 199//67 197//67
f 197//67 199//67 200//67 198//67
f 21//66 65//66 197//66 194//66
f 194//66 197//66 198//66 193//66
f 24//39 44//39 189//39 195//39
f 195//39 189//39 190//39 196//39
f 5//31 35//31 184//31 185//31
f 185//31 184//31 183//31 186//31
f 22//17 21//17 194//17 196//17
f 196//17 194//17 193//17 195//17
f 99//16 87//16 192//16 207//16
f 52//15 36//15 183//15 187//15
f 187//15 183//15 184//15 188//15
f 51//13 43//13 190//13 188//13
f 188//13 190//13 189//13 187//13
f 60//89 98//89 233//89 227//89
f 227//89 233//89 234//89 228//89
f 6//76 229//76 231//76 95//76
f 4//75 230//75 216//75 86//75
f 61//71 60//71 227//71 225//71
f 225//71 227//71 228//71 226//71
f 62//70 61//70 225//70 223//70
f 223//70 225//70 226//70 224//70
f 19//69 62//69 223//69 218//69
f 218//69 223//69 224//69 217//69
f 51//43 35//43 211//43 213//43
f 213//43 211//43 212//43 214//43
f 3//30 34//30 212//30 209//30
f 209//30 212//30 211//30 210//30
f 50//12 42//12 220//12 214//12
f 214//12 220//12 219//12 213//12
f 98//11 86//11 216//11 233//11
f 22//8 43//8 219//8 221//8
f 221//8 219//8 220//8 222//8
f 20//2 19//2 218//2 222//2
f 222//2 218//2 217//2 221//2
f 59//90 97//90 259//90 253//90
f 253//90 259//90 260//90 254//90
f 4//80 255//80 257//80 94//80
f 2//75 256//75 244//75 85//75
f 58//74 59//74 253//74 251//74
f 251//74 253//74 254//74 252//74
f 57//73 58//73 251//73 249//73
f 249//73 251//73 252//73 250//73
f 18//72 57//72 249//72 246//72
f 246//72 249//72 250//72 245//72
f 1//37 33//37 238//37 235//37
f 235//37 238//37 237//37 236//37
f 20//32 42//32 241//32 247//32
f 247//32 241//32 242//32 248//32
f 49//18 41//18 242//18 240//18
f 240//18 242//18 241//18 239//18
f 50//10 34//10 237//10 239//10
f 239//10 237//10 238//10 240//10
f 17//7 18//7 246//7 248//7
f 248//7 246//7 245//7 247//7
f 97//6 85//6 244//6 259//6
f 78//83 104//83 285//83 279//83
f 279//83 285//83 286//83 280//83
f 2//77 281//77 283//77 93//77
f 16//75 282//75 274//75 84//75
f 79//53 78//53 279//53 277//53
f 277//53 279//53 280//53 278//53
f 80//52 79//52 277//52 275//52
f 275//52 277//52 278//52 276//52
f 31//51 80//51 275//51 270//51
f 270//51 275//51 276//51 269//51
f 104//47 84//47 274//47 285//47
f 32//45 31//45 270//45 272//45
f 272//45 270//45 269//45 271//45
f 17//44 41//44 267//44 271//44
f 271//44 267//44 268//44 272//44
f 49//42 33//42 263//42 265//42
f 265//42 263//42 264//42 266//42
f 15//35 40//35 264//35 261//35
f 261//35 264//35 263//35 262//35
f 56//3 48//3 268//3 266//3
f 266//3 268//3 267//3 265//3
f 75//84 103//84 311//84 305//84
f 305//84 311//84 312//84 306//84
f 16//81 307//81 309//81 92//81
f 231//93 229//93 215//93 234//93
f 14//75 308//75 300//75 83//75
f 257//94 255//94 243//94 260//94
f 76//56 75//56 305//56 303//56
f 303//56 305//56 306//56 304//56
f 77//55 76//55 303//55 301//55
f 301//55 303//55 304//55 302//55
f 29//54 77//54 301//54 296//54
f 296//54 301//54 302//54 295//54
f 56//48 40//48 287//48 291//48
f 291//48 287//48 288//48 292//48
f 103//41 83//41 300//41 311//41
f 283//95 281//95 273//95 286//95
f 30//40 29//40 296//40 298//40
f 298//40 296//40 295//40 297//40
f 13//38 39//38 288//38 289//38
f 289//38 288//38 287//38 290//38
f 32//25 48//25 293//25 297//25
f 297//25 293//25 294//25 298//25
f 55//19 47//19 294//19 292//19
f 292//19 294//19 293//19 291//19
f 205//96 203//96 191//96 208//96
f 309//75 312//75 311//75 310//75
f 153//97 151//97 141//97 156//97
f 309//98 307//98 299//98 312//98
f 167//99 182//99 179//99 177//99
f 179//75 182//75 181//75 180//75
f 168//100 178//100 180//100 181//100
f 310//101 311//101 300//101 308//101
f 283//75 286//75 285//75 284//75
f 257//75 260//75 259//75 258//75
f 205//75 208//75 207//75 206//75
f 284//102 285//102 274//102 282//102
f 154//103 155//103 142//103 152//103
f 153//75 156//75 155//75 154//75
f 258//104 259//104 244//104 256//104
f 231//75 234//75 233//75 232//75
f 232//105 233//105 216//105 230//105
f 206//106 207//106 192//106 204//106
