# Blender 3.6.5
# www.blender.org
mtllib pawn.mtl
o PrimaryWhitePawn.007
v 0.000001 4.323977 -0.426096
v 0.000001 3.513493 -0.689438
v 0.301296 4.323977 -0.301296
v 0.487507 3.961517 -0.487507
v 0.487507 3.513493 -0.487507
v 0.426097 4.323977 0.000000
v 0.689439 3.961517 0.000000
v 0.689439 3.513493 0.000000
v 0.301296 4.323977 0.301296
v 0.487507 3.961517 0.487507
v 0.487507 3.513493 0.487507
v 0.301296 3.151033 0.301296
v 0.000001 4.323977 0.426096
v 0.000001 3.961517 0.689439
v 0.000001 3.513493 0.689439
v 0.000001 3.151033 0.426096
v 0.000001 4.462423 0.000000
v -0.301295 4.323977 0.301296
v -0.487506 3.961517 0.487507
v -0.487506 3.513493 0.487507
v -0.301295 3.151033 0.301296
v -0.426096 4.323977 0.000000
v -0.689438 3.961517 0.000000
v -0.689438 3.513493 0.000000
v -0.426096 3.151033 0.000000
v -0.301295 4.323977 -0.301296
v -0.487506 3.961517 -0.487507
v -0.487506 3.513493 -0.487507
v -0.301295 3.151033 -0.301296
v 0.000001 3.961517 -0.689438
v 0.000001 0.000000 -1.500000
v 0.000001 1.248326 -0.767285
v 1.060661 0.000000 -1.060660
v 0.542553 1.248326 -0.542553
v 1.500001 0.000000 -0.000000
v 0.767286 1.248326 -0.000000
v 1.060661 0.000000 1.060660
v 0.542553 1.248326 0.542552
v 0.000000 0.000000 1.500000
v 0.000001 1.248326 0.767285
v -1.060660 0.000000 1.060660
v -0.542552 1.248326 0.542552
v -1.499999 0.000000 -0.000001
v -0.767284 1.248326 -0.000001
v -1.060658 0.000000 -1.060662
v -0.542551 1.248326 -0.542553
v 0.000001 1.077780 -0.920889
v 0.000001 1.175758 -0.913736
v 0.646109 1.175758 -0.646109
v 0.651167 1.077780 -0.651167
v 0.913736 1.175758 -0.000000
v 0.920890 1.077780 -0.000000
v 0.646109 1.175758 0.646108
v 0.651167 1.077780 0.651166
v 0.000000 1.175758 0.913735
v 0.000000 1.077780 0.920889
v -0.646108 1.175758 0.646108
v -0.651166 1.077780 0.651166
v -0.913735 1.175758 -0.000001
v -0.920888 1.077780 -0.000001
v -0.646107 1.175758 -0.646110
v -0.651165 1.077780 -0.651168
v 0.000001 0.160689 -1.494586
v 1.056833 0.160689 -1.056832
v 1.494587 0.160689 -0.000000
v 1.056833 0.160689 1.056832
v 0.000000 0.160689 1.494586
v -1.056832 0.160689 1.056831
v -1.494586 0.160689 -0.000001
v -1.056830 0.160689 -1.056833
v 0.000001 0.648443 -1.386380
v 0.980319 0.648443 -0.980319
v 1.386381 0.648443 -0.000000
v 0.980319 0.648443 0.980319
v 0.000000 0.648443 1.386380
v -0.980319 0.648443 0.980318
v -1.386379 0.648443 -0.000001
v -0.980317 0.648443 -0.980320
v 0.000001 0.428504 -1.210957
v 0.856276 0.428504 -0.856276
v 1.210957 0.428504 -0.000000
v 0.856276 0.428504 0.856275
v 0.000000 0.428504 1.210956
v -0.856275 0.428504 0.856275
v -1.210956 0.428504 -0.000001
v -0.856274 0.428504 -0.856277
v 0.000001 3.151033 -0.426096
v 0.301296 3.151033 -0.301295
v 0.426096 3.151033 -0.000000
v 0.000001 2.794524 -0.520084
v 0.000001 2.908154 -0.878190
v 0.620975 2.908154 -0.620974
v 0.367755 2.794524 -0.367755
v -0.520082 2.794524 -0.000001
v -0.878189 2.908154 -0.000001
v -0.620972 2.908154 -0.620975
v -0.367753 2.794524 -0.367755
v 0.367755 2.794524 0.367754
v 0.620975 2.908154 0.620974
v 0.000000 2.908154 0.878190
v 0.000001 2.794524 0.520083
v 0.520084 2.794524 -0.000000
v 0.878191 2.908154 -0.000000
v -0.620974 2.908154 0.620973
v -0.367754 2.794524 0.367754
vn 0.3827 -0.0000 -0.9239
vn 0.1270 0.9434 -0.3065
vn 0.3177 -0.5573 -0.7671
vn 0.3177 0.5573 -0.7671
vn 0.7671 -0.5573 -0.3177
vn 0.7671 0.5573 -0.3177
vn 0.9239 -0.0000 -0.3827
vn 0.3065 0.9434 -0.1270
vn 0.7671 -0.5573 0.3177
vn 0.7671 0.5573 0.3177
vn 0.9239 -0.0000 0.3827
vn 0.3065 0.9434 0.1270
vn 0.3177 -0.5573 0.7671
vn 0.3177 0.5573 0.7671
vn 0.3827 -0.0000 0.9239
vn 0.1270 0.9434 0.3065
vn -0.3177 -0.5573 0.7671
vn -0.3177 0.5573 0.7671
vn -0.3827 -0.0000 0.9239
vn -0.1270 0.9434 0.3065
vn -0.7671 -0.5573 0.3177
vn -0.7671 0.5573 0.3177
vn -0.9239 -0.0000 0.3827
vn -0.3065 0.9434 0.1270
vn -0.7671 -0.5573 -0.3177
vn -0.7671 0.5573 -0.3177
vn -0.0000 -1.0000 -0.0000
vn -0.9239 -0.0000 -0.3827
vn -0.3065 0.9434 -0.1270
vn -0.3177 -0.5573 -0.7671
vn -0.3177 0.5573 -0.7671
vn -0.3827 -0.0000 -0.9239
vn -0.1270 0.9434 -0.3065
vn -0.3081 -0.5932 0.7438
vn 0.9218 0.0673 -0.3818
vn -0.3081 -0.5932 -0.7438
vn -0.2704 0.7077 0.6527
vn -0.6604 0.6994 0.2735
vn 0.1809 0.8813 -0.4367
vn 0.3818 0.0673 -0.9218
vn 0.6527 0.7077 -0.2704
vn 0.2704 0.7077 0.6527
vn 0.2735 0.6994 -0.6604
vn 0.4367 0.8813 -0.1809
vn 0.7438 -0.5932 -0.3081
vn 0.7438 -0.5932 0.3081
vn 0.3081 -0.5932 0.7438
vn 0.6604 0.6994 0.2735
vn 0.4367 0.8813 0.1809
vn 0.9218 0.0673 0.3818
vn 0.3081 -0.5932 -0.7438
vn -0.7438 -0.5932 -0.3081
vn 0.3818 0.0673 0.9218
vn 0.1809 0.8813 0.4367
vn 0.1924 0.8645 -0.4644
vn -0.7438 -0.5932 0.3081
vn -0.6527 0.7077 -0.2704
vn -0.3818 0.0673 0.9218
vn 0.3825 0.0311 0.9234
vn -0.1809 0.8813 0.4367
vn -0.3825 0.0311 0.9234
vn 0.9234 0.0311 -0.3825
vn 0.9234 0.0311 0.3825
vn 0.2704 0.7077 -0.6527
vn -0.9218 0.0673 0.3818
vn -0.4367 0.8813 0.1809
vn -0.3825 0.0311 -0.9234
vn -0.9234 0.0311 0.3825
vn 0.3825 0.0311 -0.9234
vn -0.9234 0.0311 -0.3825
vn 0.6527 0.7077 0.2704
vn -0.9218 0.0673 -0.3818
vn -0.4367 0.8813 -0.1809
vn -0.2735 0.6994 -0.6604
vn 0.6604 0.6994 -0.2735
vn -0.2704 0.7077 -0.6527
vn -0.3818 0.0673 -0.9218
vn -0.2735 0.6994 0.6604
vn -0.1809 0.8813 -0.4367
vn -0.6604 0.6994 -0.2735
vn -0.6527 0.7077 0.2704
vn 0.2735 0.6994 0.6604
vn -0.4644 0.8645 -0.1924
vn 0.1924 0.8645 0.4644
vn 0.4644 0.8645 0.1924
vn -0.1924 0.8645 0.4644
vn -0.1924 0.8645 -0.4644
vn -0.4644 0.8645 0.1924
vn 0.4644 0.8645 -0.1924
vn 0.3001 -0.9458 -0.1243
vn 0.3786 0.1461 0.9140
vn -0.3001 -0.9458 0.1243
vn -0.1243 -0.9458 -0.3001
vn -0.9140 0.1461 -0.3786
vn -0.9140 0.1461 0.3786
vn -0.1243 -0.9458 0.3001
vn 0.9140 0.1461 -0.3786
vn -0.3786 0.1461 -0.9140
vn 0.3001 -0.9458 0.1243
vn 0.9140 0.1461 0.3786
vn 0.3786 0.1461 -0.9140
vn 0.1243 -0.9458 0.3001
vn -0.3786 0.1461 0.9140
vn -0.3001 -0.9458 -0.1243
vn 0.1243 -0.9458 -0.3001
s 0
usemtl White_Piece
f 2//1 30//1 4//1 5//1
f 1//2 17//2 3//2
f 87//3 2//3 5//3 88//3
f 30//4 1//4 3//4 4//4
f 88//5 5//5 8//5 89//5
f 4//6 3//6 6//6 7//6
f 5//7 4//7 7//7 8//7
f 3//8 17//8 6//8
f 89//9 8//9 11//9 12//9
f 7//10 6//10 9//10 10//10
f 8//11 7//11 10//11 11//11
f 6//12 17//12 9//12
f 12//13 11//13 15//13 16//13
f 10//14 9//14 13//14 14//14
f 11//15 10//15 14//15 15//15
f 9//16 17//16 13//16
f 16//17 15//17 20//17 21//17
f 14//18 13//18 18//18 19//18
f 15//19 14//19 19//19 20//19
f 13//20 17//20 18//20
f 21//21 20//21 24//21 25//21
f 19//22 18//22 22//22 23//22
f 20//23 19//23 23//23 24//23
f 18//24 17//24 22//24
f 25//25 24//25 28//25 29//25
f 23//26 22//26 26//26 27//26
f 89//27 12//27 16//27 21//27 25//27 29//27 87//27 88//27
f 24//28 23//28 27//28 28//28
f 22//29 17//29 26//29
f 29//30 28//30 2//30 87//30
f 27//31 26//31 1//31 30//31
f 28//32 27//32 30//32 2//32
f 26//33 17//33 1//33
f 83//34 75//34 76//34 84//34
f 50//35 49//35 51//35 52//35
f 86//36 78//36 71//36 79//36
f 58//37 76//37 75//37 56//37
f 85//38 69//38 68//38 84//38
f 48//39 32//39 34//39 49//39
f 47//40 48//40 49//40 50//40
f 52//41 73//41 72//41 50//41
f 56//42 75//42 74//42 54//42
f 80//43 64//43 63//43 79//43
f 49//44 34//44 36//44 51//44
f 80//45 72//45 73//45 81//45
f 81//46 73//46 74//46 82//46
f 82//47 74//47 75//47 83//47
f 82//48 66//48 65//48 81//48
f 51//49 36//49 38//49 53//49
f 52//50 51//50 53//50 54//50
f 79//51 71//51 72//51 80//51
f 85//52 77//52 78//52 86//52
f 54//53 53//53 55//53 56//53
f 53//54 38//54 40//54 55//54
f 39//27 41//27 43//27 45//27 31//27 33//27 35//27 37//27
f 92//55 91//55 87//55 88//55
f 84//56 76//56 77//56 85//56
f 62//57 78//57 77//57 60//57
f 56//58 55//58 57//58 58//58
f 37//59 66//59 67//59 39//59
f 55//60 40//60 42//60 57//60
f 39//61 67//61 68//61 41//61
f 33//62 64//62 65//62 35//62
f 35//63 65//63 66//63 37//63
f 50//64 72//64 71//64 47//64
f 58//65 57//65 59//65 60//65
f 57//66 42//66 44//66 59//66
f 45//67 70//67 63//67 31//67
f 41//68 68//68 69//68 43//68
f 31//69 63//69 64//69 33//69
f 43//70 69//70 70//70 45//70
f 54//71 74//71 73//71 52//71
f 60//72 59//72 61//72 62//72
f 59//73 44//73 46//73 61//73
f 79//74 63//74 70//74 86//74
f 81//75 65//75 64//75 80//75
f 47//76 71//76 78//76 62//76
f 62//77 61//77 48//77 47//77
f 84//78 68//78 67//78 83//78
f 61//79 46//79 32//79 48//79
f 86//80 70//80 69//80 85//80
f 60//81 77//81 76//81 58//81
f 83//82 67//82 66//82 82//82
f 96//83 95//83 25//83 29//83
f 100//84 99//84 12//84 16//84
f 99//85 103//85 89//85 12//85
f 104//86 100//86 16//86 21//86
f 91//87 96//87 29//87 87//87
f 95//88 104//88 21//88 25//88
f 103//89 92//89 88//89 89//89
f 102//90 93//90 92//90 103//90
f 38//91 98//91 101//91 40//91
f 94//92 105//92 104//92 95//92
f 90//93 97//93 96//93 91//93
f 44//94 94//94 97//94 46//94
f 42//95 105//95 94//95 44//95
f 105//96 101//96 100//96 104//96
f 34//97 93//97 102//97 36//97
f 46//98 97//98 90//98 32//98
f 98//99 102//99 103//99 99//99
f 36//100 102//100 98//100 38//100
f 32//101 90//101 93//101 34//101
f 101//102 98//102 99//102 100//102
f 40//103 101//103 105//103 42//103
f 97//104 94//104 95//104 96//104
f 93//105 90//105 91//105 92//105
